<svg height="480pt" viewBox="0 -24 480 480" width="480pt" xmlns="http://www.w3.org/2000/svg"><path d="m472 424h-464v-336h112v-32h352zm0 0" fill="#71bbc7"/><path d="m176 8h128v128h-128zm0 0" fill="#87ced9"/><path d="m208 40h64v64h-64zm0 0" fill="#5c5c5b"/><path d="m24 40h96v48h-96zm0 0" fill="#5c5c5b"/><path d="m8 136h464v256h-464zm0 0" fill="#5c5c5b"/><path d="m112 188c0 11.046875-8.953125 20-20 20s-20-8.953125-20-20 8.953125-20 20-20 20 8.953125 20 20zm0 0" fill="#cfcfcd"/><path d="m344 24h32v32h-32zm0 0" fill="#71c4d1"/><path d="m416 24h32v32h-32zm0 0" fill="#71c4d1"/><g fill="#4a4a4a"><path d="m48 64h16v24h-16zm0 0"/><path d="m80 64h16v24h-16zm0 0"/><path d="m32 160h16v16h-16zm0 0"/><path d="m32 192h16v112h-16zm0 0"/></g><path d="m256 72c0 8.835938-7.164062 16-16 16s-16-7.164062-16-16 7.164062-16 16-16 16 7.164062 16 16zm0 0" fill="#cfcfcd"/><path d="m176 136h128v24h-128zm0 0" fill="#4a4a4a"/><path d="m8 392h464v32h-464zm0 0" fill="#878787"/><path d="m368 296c0 70.691406-57.308594 128-128 128s-128-57.308594-128-128 57.308594-128 128-128 128 57.308594 128 128zm0 0" fill="#cfcfcd"/><path d="m125.390625 352.742188c22.226563 45.050781 68.761719 72.917968 118.964844 71.246093s94.78125-32.574219 113.957031-79c19.175781-46.429687 9.402344-99.78125-24.984375-136.394531-60.417969 85.269531-147.488281 125.582031-207.9375 144.148438zm0 0" fill="#c2c2c0"/><path d="m328 296c0 48.601562-39.398438 88-88 88s-88-39.398438-88-88 39.398438-88 88-88 88 39.398438 88 88zm0 0" fill="#9c9c9a"/><path d="m280 296c0 22.089844-17.910156 40-40 40s-40-17.910156-40-40 17.910156-40 40-40 40 17.910156 40 40zm0 0" fill="#5c5c5b"/><path d="m472 48h-16v-24c0-4.417969-3.582031-8-8-8h-32c-4.417969 0-8 3.582031-8 8v24h-24v-24c0-4.417969-3.582031-8-8-8h-32c-4.417969 0-8 3.582031-8 8v24h-24v-40c0-4.417969-3.582031-8-8-8h-128c-4.417969 0-8 3.582031-8 8v40h-40v-8c0-4.417969-3.582031-8-8-8h-96c-4.417969 0-8 3.582031-8 8v40h-8c-4.417969 0-8 3.582031-8 8v336c0 4.417969 3.582031 8 8 8h464c4.417969 0 8-3.582031 8-8v-368c0-4.417969-3.582031-8-8-8zm-48-16h16v16h-16zm-72 0h16v16h-16zm-8 32h120v64h-152v-64zm120 320h-120.496094c46.90625-55.03125 42.546875-137.144531-9.921875-186.902344-52.46875-49.757812-134.695312-49.757812-187.164062 0-52.46875 49.757813-56.828125 131.871094-9.921875 186.902344h-120.496094v-240h448zm-344-88c0-66.273438 53.726562-120 120-120s120 53.726562 120 120-53.726562 120-120 120c-66.242188-.074219-119.925781-53.757812-120-120zm64-280h112v112h-112zm-152 32h80v32h-16v-16h-16v16h-16v-16h-16v16h-16zm-8 48h96c4.417969 0 8-3.582031 8-8v-24h40v64h-152v-32zm-8 320v-16h136.542969c7.285156 6.140625 15.191406 11.503906 23.59375 16zm287.863281 0c8.402344-4.496094 16.308594-9.859375 23.59375-16h136.542969v16zm0 0"/><path d="m272 32h-64c-4.417969 0-8 3.582031-8 8v64c0 4.417969 3.582031 8 8 8h64c4.417969 0 8-3.582031 8-8v-64c0-4.417969-3.582031-8-8-8zm-8 64h-48v-48h48zm0 0"/><path d="m92 160c-15.464844 0-28 12.535156-28 28s12.535156 28 28 28 28-12.535156 28-28-12.535156-28-28-28zm0 40c-6.628906 0-12-5.371094-12-12s5.371094-12 12-12 12 5.371094 12 12-5.371094 12-12 12zm0 0"/><path d="m336 296c0-53.019531-42.980469-96-96-96s-96 42.980469-96 96 42.980469 96 96 96c52.996094-.058594 95.941406-43.003906 96-96zm-176 0c0-44.183594 35.816406-80 80-80s80 35.816406 80 80-35.816406 80-80 80c-44.164062-.046875-79.953125-35.835938-80-80zm0 0"/><path d="m288 296c0-26.507812-21.492188-48-48-48s-48 21.492188-48 48 21.492188 48 48 48c26.5-.027344 47.972656-21.5 48-48zm-80 0c0-17.671875 14.328125-32 32-32s32 14.328125 32 32-14.328125 32-32 32-32-14.328125-32-32zm0 0"/><path d="m32 160h16v16h-16zm0 0"/><path d="m32 192h16v112h-16zm0 0"/></svg>